# xmcd CD database file
#
# Track frame offsets:
#	150
#	17371
#	36617
#	52993
#	69154
#	85375
#	101759
#	118911
#	138798
#	153707
#
# Disc length: 2392 seconds
#
# Revision: 0
# Processed by: cddbd v1.5.2PL0 Copyright (c) Steve Scherf et al.
# Submitted via: CDex 1.51
#
DISCID=8209560a
DTITLE=Kirby Sewell Band - Bought Myself a Hammer
DYEAR=2011
DGENRE=Blues
TTITLE0=You've been a bad girl
TTITLE1=Own way home
TTITLE2=Pour some sugar on me
TTITLE3=Something about this is all wrong
TTITLE4=Bought myself a hammer
TTITLE5=I've been hopin'
TTITLE6=Money's all gone
TTITLE7=Year I was born (1977)
TTITLE8=I love to watch you walk away
TTITLE9=White light/white heat
EXTD=YEAR: 2011
EXTT0=
EXTT1=
EXTT2=
EXTT3=
EXTT4=
EXTT5=
EXTT6=
EXTT7=
EXTT8=
EXTT9=
PLAYORDER=
